<svg width="20" height="20" viewBox="0 0 20 20" fill="none" xmlns="http://www.w3.org/2000/svg">
<path fill-rule="evenodd" clip-rule="evenodd" d="M12.5861 4.58616C12.7706 4.39514 12.9913 4.24278 13.2353 4.13796C13.4793 4.03314 13.7417 3.97797 14.0073 3.97566C14.2728 3.97336 14.5362 4.02396 14.782 4.12452C15.0278 4.22508 15.2511 4.37359 15.4389 4.56137C15.6267 4.74916 15.7752 4.97246 15.8757 5.21826C15.9763 5.46405 16.0269 5.72741 16.0246 5.99297C16.0223 6.25853 15.9671 6.52097 15.8623 6.76497C15.7575 7.00898 15.6051 7.22967 15.4141 7.41416L12.4141 10.4142C12.039 10.7891 11.5304 10.9997 11.0001 10.9997C10.4698 10.9997 9.96114 10.7891 9.58608 10.4142C9.39748 10.232 9.14488 10.1312 8.88268 10.1335C8.62048 10.1358 8.36967 10.2409 8.18426 10.4263C7.99885 10.6118 7.89368 10.8626 7.89141 11.1248C7.88913 11.387 7.98992 11.6396 8.17208 11.8282C8.92219 12.578 9.93942 12.9993 11.0001 12.9993C12.0607 12.9993 13.078 12.578 13.8281 11.8282L16.8281 8.82816C17.5567 8.07376 17.9599 7.06335 17.9508 6.01456C17.9417 4.96577 17.521 3.96252 16.7794 3.22089C16.0377 2.47926 15.0345 2.05858 13.9857 2.04947C12.9369 2.04035 11.9265 2.44353 11.1721 3.17216L9.67208 4.67216C9.57657 4.76441 9.50039 4.87476 9.44798 4.99676C9.39557 5.11876 9.36798 5.24998 9.36683 5.38276C9.36568 5.51554 9.39098 5.64722 9.44126 5.77012C9.49154 5.89301 9.56579 6.00467 9.65969 6.09856C9.75358 6.19245 9.86523 6.2667 9.98813 6.31699C10.111 6.36727 10.2427 6.39257 10.3755 6.39141C10.5083 6.39026 10.6395 6.36267 10.7615 6.31027C10.8835 6.25786 10.9938 6.18167 11.0861 6.08616L12.5861 4.58616ZM7.58608 9.58616C7.96114 9.21122 8.46975 9.00059 9.00008 9.00059C9.53041 9.00059 10.039 9.21122 10.4141 9.58616C10.5063 9.68167 10.6167 9.75786 10.7387 9.81027C10.8607 9.86267 10.9919 9.89026 11.1247 9.89141C11.2575 9.89257 11.3891 9.86727 11.512 9.81699C11.6349 9.76671 11.7466 9.69245 11.8405 9.59856C11.9344 9.50467 12.0086 9.39301 12.0589 9.27012C12.1092 9.14722 12.1345 9.01554 12.1333 8.88276C12.1322 8.74998 12.1046 8.61876 12.0522 8.49676C11.9998 8.37476 11.9236 8.26441 11.8281 8.17216C11.078 7.42228 10.0607 7.00102 9.00008 7.00102C7.93942 7.00102 6.92219 7.42228 6.17208 8.17216L3.17208 11.1722C2.79004 11.5412 2.48531 11.9825 2.27568 12.4705C2.06604 12.9586 1.95569 13.4834 1.95108 14.0146C1.94646 14.5457 2.04767 15.0724 2.24879 15.564C2.44992 16.0556 2.74693 16.5022 3.1225 16.8777C3.49807 17.2533 3.94468 17.5503 4.43626 17.7515C4.92785 17.9526 5.45457 18.0538 5.98569 18.0492C6.5168 18.0446 7.04168 17.9342 7.5297 17.7246C8.01771 17.5149 8.45909 17.2102 8.82808 16.8282L10.3281 15.3282C10.4236 15.2359 10.4998 15.1256 10.5522 15.0036C10.6046 14.8816 10.6322 14.7503 10.6333 14.6176C10.6345 14.4848 10.6092 14.3531 10.5589 14.2302C10.5086 14.1073 10.4344 13.9957 10.3405 13.9018C10.2466 13.8079 10.1349 13.7336 10.012 13.6833C9.88914 13.6331 9.75746 13.6078 9.62468 13.6089C9.4919 13.6101 9.36068 13.6377 9.23868 13.6901C9.11667 13.7425 9.00633 13.8187 8.91408 13.9142L7.41408 15.4142C7.22959 15.6052 7.0089 15.7575 6.76489 15.8624C6.52088 15.9672 6.25844 16.0224 5.99288 16.0247C5.72732 16.027 5.46397 15.9764 5.21817 15.8758C4.97238 15.7752 4.74908 15.6267 4.56129 15.439C4.37351 15.2512 4.225 15.0279 4.12444 14.7821C4.02388 14.5363 3.97327 14.2729 3.97558 14.0074C3.97789 13.7418 4.03306 13.4794 4.13788 13.2354C4.2427 12.9913 4.39506 12.7707 4.58608 12.5862L7.58608 9.58616Z" fill="#425C5A"/>
</svg>
