<svg width="139" height="60" viewBox="0 0 139 60" fill="none" xmlns="http://www.w3.org/2000/svg">
<path d="M11.74 2.03V3.77H2.5V11.6H10.3V13.34H2.5V23H0.4V2.03H11.74ZM12.4349 14.78C12.4349 13.1 12.7649 11.63 13.4249 10.37C14.1049 9.09 15.0349 8.11 16.2149 7.43C17.4149 6.73 18.7649 6.38 20.2649 6.38C21.8249 6.38 23.1649 6.74 24.2849 7.46C25.4249 8.18 26.2449 9.1 26.7449 10.22V6.62H28.8449V23H26.7449V19.37C26.2249 20.49 25.3949 21.42 24.2549 22.16C23.1349 22.88 21.7949 23.24 20.2349 23.24C18.7549 23.24 17.4149 22.89 16.2149 22.19C15.0349 21.49 14.1049 20.5 13.4249 19.22C12.7649 17.94 12.4349 16.46 12.4349 14.78ZM26.7449 14.81C26.7449 13.49 26.4749 12.33 25.9349 11.33C25.3949 10.33 24.6549 9.56 23.7149 9.02C22.7949 8.48 21.7749 8.21 20.6549 8.21C19.4949 8.21 18.4549 8.47 17.5349 8.99C16.6149 9.51 15.8849 10.27 15.3449 11.27C14.8249 12.25 14.5649 13.42 14.5649 14.78C14.5649 16.12 14.8249 17.3 15.3449 18.32C15.8849 19.32 16.6149 20.09 17.5349 20.63C18.4549 21.15 19.4949 21.41 20.6549 21.41C21.7749 21.41 22.7949 21.14 23.7149 20.6C24.6549 20.06 25.3949 19.29 25.9349 18.29C26.4749 17.29 26.7449 16.13 26.7449 14.81ZM32.8891 3.53C32.4691 3.53 32.1091 3.38 31.8091 3.08C31.5091 2.78 31.3591 2.41 31.3591 1.97C31.3591 1.53 31.5091 1.17 31.8091 0.889999C32.1091 0.589999 32.4691 0.439999 32.8891 0.439999C33.3091 0.439999 33.6691 0.589999 33.9691 0.889999C34.2691 1.17 34.4191 1.53 34.4191 1.97C34.4191 2.41 34.2691 2.78 33.9691 3.08C33.6691 3.38 33.3091 3.53 32.8891 3.53ZM33.9391 6.62V23H31.8391V6.62H33.9391ZM38.0045 21.26H46.5845V23H35.6045V21.26L44.0345 8.36H35.7545V6.62H46.4345V8.36L38.0045 21.26ZM66.9191 18.02H57.3791L55.5491 23H53.3291L60.9791 2.3H63.3491L70.9691 23H68.7491L66.9191 18.02ZM66.2891 16.28L62.1491 4.94L58.0091 16.28H66.2891ZM80.2195 6.32C82.1795 6.32 83.7795 6.93 85.0195 8.15C86.2595 9.35 86.8795 11.1 86.8795 13.4V23H84.8095V13.64C84.8095 11.86 84.3595 10.5 83.4595 9.56C82.5795 8.62 81.3695 8.15 79.8295 8.15C78.2495 8.15 76.9895 8.65 76.0495 9.65C75.1095 10.65 74.6395 12.12 74.6395 14.06V23H72.5395V6.62H74.6395V9.41C75.1595 8.41 75.9095 7.65 76.8895 7.13C77.8695 6.59 78.9795 6.32 80.2195 6.32ZM111.324 6.62L106.194 23H104.094L99.5638 9.26L95.0338 23H92.9038L87.7738 6.62H89.9038L93.9838 20.87L98.5738 6.62H100.674L105.204 20.9L109.254 6.62H111.324ZM111.427 14.78C111.427 13.1 111.757 11.63 112.417 10.37C113.097 9.09 114.027 8.11 115.207 7.43C116.407 6.73 117.757 6.38 119.257 6.38C120.817 6.38 122.157 6.74 123.277 7.46C124.417 8.18 125.237 9.1 125.737 10.22V6.62H127.837V23H125.737V19.37C125.217 20.49 124.387 21.42 123.247 22.16C122.127 22.88 120.787 23.24 119.227 23.24C117.747 23.24 116.407 22.89 115.207 22.19C114.027 21.49 113.097 20.5 112.417 19.22C111.757 17.94 111.427 16.46 111.427 14.78ZM125.737 14.81C125.737 13.49 125.467 12.33 124.927 11.33C124.387 10.33 123.647 9.56 122.707 9.02C121.787 8.48 120.767 8.21 119.647 8.21C118.487 8.21 117.447 8.47 116.527 8.99C115.607 9.51 114.877 10.27 114.337 11.27C113.817 12.25 113.557 13.42 113.557 14.78C113.557 16.12 113.817 17.3 114.337 18.32C114.877 19.32 115.607 20.09 116.527 20.63C117.447 21.15 118.487 21.41 119.647 21.41C120.767 21.41 121.787 21.14 122.707 20.6C123.647 20.06 124.387 19.29 124.927 18.29C125.467 17.29 125.737 16.13 125.737 14.81ZM132.931 9.53C133.391 8.51 134.091 7.72 135.031 7.16C135.991 6.6 137.161 6.32 138.541 6.32V8.51H137.971C136.451 8.51 135.231 8.92 134.311 9.74C133.391 10.56 132.931 11.93 132.931 13.85V23H130.831V6.62H132.931V9.53Z" fill="#F4F4F5"/>
<path d="M13.81 44.06C13.81 45.86 13.22 47.31 12.04 48.41C10.86 49.51 9.09 50.06 6.73 50.06H2.5V59H0.4V38.03H6.73C9.07 38.03 10.83 38.58 12.01 39.68C13.21 40.78 13.81 42.24 13.81 44.06ZM6.73 48.26C10.01 48.26 11.65 46.86 11.65 44.06C11.65 42.66 11.26 41.6 10.48 40.88C9.7 40.16 8.45 39.8 6.73 39.8H2.5V48.26H6.73ZM22.7036 59.24C21.1636 59.24 19.7736 58.9 18.5336 58.22C17.3136 57.52 16.3436 56.54 15.6236 55.28C14.9236 54 14.5736 52.51 14.5736 50.81C14.5736 49.11 14.9336 47.63 15.6536 46.37C16.3736 45.09 17.3536 44.11 18.5936 43.43C19.8336 42.73 21.2236 42.38 22.7636 42.38C24.3036 42.38 25.6936 42.73 26.9336 43.43C28.1936 44.11 29.1736 45.09 29.8736 46.37C30.5936 47.63 30.9536 49.11 30.9536 50.81C30.9536 52.49 30.5936 53.97 29.8736 55.25C29.1536 56.53 28.1636 57.52 26.9036 58.22C25.6436 58.9 24.2436 59.24 22.7036 59.24ZM22.7036 57.41C23.7836 57.41 24.7836 57.17 25.7036 56.69C26.6236 56.19 27.3636 55.45 27.9236 54.47C28.5036 53.47 28.7936 52.25 28.7936 50.81C28.7936 49.37 28.5136 48.16 27.9536 47.18C27.3936 46.18 26.6536 45.44 25.7336 44.96C24.8136 44.46 23.8136 44.21 22.7336 44.21C21.6536 44.21 20.6536 44.46 19.7336 44.96C18.8136 45.44 18.0736 46.18 17.5136 47.18C16.9736 48.16 16.7036 49.37 16.7036 50.81C16.7036 52.25 16.9736 53.47 17.5136 54.47C18.0736 55.45 18.8036 56.19 19.7036 56.69C20.6236 57.17 21.6236 57.41 22.7036 57.41ZM35.0816 45.53C35.5416 44.51 36.2416 43.72 37.1816 43.16C38.1416 42.6 39.3116 42.32 40.6916 42.32V44.51H40.1216C38.6016 44.51 37.3816 44.92 36.4616 45.74C35.5416 46.56 35.0816 47.93 35.0816 49.85V59H32.9816V42.62H35.0816V45.53ZM44.7808 44.39V54.56C44.7808 55.56 44.9708 56.25 45.3508 56.63C45.7308 57.01 46.4008 57.2 47.3608 57.2H49.2808V59H47.0308C45.5508 59 44.4508 58.66 43.7308 57.98C43.0108 57.28 42.6508 56.14 42.6508 54.56V44.39H40.3708V42.62H42.6508V38.51H44.7808V42.62H49.2808V44.39H44.7808ZM57.3941 44.39H53.5841V59H51.4841V44.39H49.2041V42.62H51.4841V41.48C51.4841 39.7 51.9341 38.39 52.8341 37.55C53.7541 36.71 55.2341 36.29 57.2741 36.29V38.09C55.9141 38.09 54.9541 38.35 54.3941 38.87C53.8541 39.39 53.5841 40.26 53.5841 41.48V42.62H57.3941V44.39ZM66.07 59.24C64.53 59.24 63.14 58.9 61.9 58.22C60.68 57.52 59.71 56.54 58.99 55.28C58.29 54 57.94 52.51 57.94 50.81C57.94 49.11 58.3 47.63 59.02 46.37C59.74 45.09 60.72 44.11 61.96 43.43C63.2 42.73 64.59 42.38 66.13 42.38C67.67 42.38 69.06 42.73 70.3 43.43C71.56 44.11 72.54 45.09 73.24 46.37C73.96 47.63 74.32 49.11 74.32 50.81C74.32 52.49 73.96 53.97 73.24 55.25C72.52 56.53 71.53 57.52 70.27 58.22C69.01 58.9 67.61 59.24 66.07 59.24ZM66.07 57.41C67.15 57.41 68.15 57.17 69.07 56.69C69.99 56.19 70.73 55.45 71.29 54.47C71.87 53.47 72.16 52.25 72.16 50.81C72.16 49.37 71.88 48.16 71.32 47.18C70.76 46.18 70.02 45.44 69.1 44.96C68.18 44.46 67.18 44.21 66.1 44.21C65.02 44.21 64.02 44.46 63.1 44.96C62.18 45.44 61.44 46.18 60.88 47.18C60.34 48.16 60.07 49.37 60.07 50.81C60.07 52.25 60.34 53.47 60.88 54.47C61.44 55.45 62.17 56.19 63.07 56.69C63.99 57.17 64.99 57.41 66.07 57.41ZM78.448 36.8V59H76.348V36.8H78.448ZM82.4535 39.53C82.0335 39.53 81.6735 39.38 81.3735 39.08C81.0735 38.78 80.9235 38.41 80.9235 37.97C80.9235 37.53 81.0735 37.17 81.3735 36.89C81.6735 36.59 82.0335 36.44 82.4535 36.44C82.8735 36.44 83.2335 36.59 83.5335 36.89C83.8335 37.17 83.9835 37.53 83.9835 37.97C83.9835 38.41 83.8335 38.78 83.5335 39.08C83.2335 39.38 82.8735 39.53 82.4535 39.53ZM83.5035 42.62V59H81.4035V42.62H83.5035ZM93.629 59.24C92.089 59.24 90.699 58.9 89.459 58.22C88.239 57.52 87.269 56.54 86.549 55.28C85.849 54 85.499 52.51 85.499 50.81C85.499 49.11 85.859 47.63 86.579 46.37C87.299 45.09 88.279 44.11 89.519 43.43C90.759 42.73 92.149 42.38 93.689 42.38C95.229 42.38 96.619 42.73 97.859 43.43C99.119 44.11 100.099 45.09 100.799 46.37C101.519 47.63 101.879 49.11 101.879 50.81C101.879 52.49 101.519 53.97 100.799 55.25C100.079 56.53 99.089 57.52 97.829 58.22C96.569 58.9 95.169 59.24 93.629 59.24ZM93.629 57.41C94.709 57.41 95.709 57.17 96.629 56.69C97.549 56.19 98.289 55.45 98.849 54.47C99.429 53.47 99.719 52.25 99.719 50.81C99.719 49.37 99.439 48.16 98.879 47.18C98.319 46.18 97.579 45.44 96.659 44.96C95.739 44.46 94.739 44.21 93.659 44.21C92.579 44.21 91.579 44.46 90.659 44.96C89.739 45.44 88.999 46.18 88.439 47.18C87.899 48.16 87.629 49.37 87.629 50.81C87.629 52.25 87.899 53.47 88.439 54.47C88.999 55.45 89.729 56.19 90.629 56.69C91.549 57.17 92.549 57.41 93.629 57.41Z" fill="#27272A"/>
</svg>