<svg width="144" height="104" viewBox="0 0 144 104" fill="none" xmlns="http://www.w3.org/2000/svg">
<path d="M12.98 23.86C14.62 23.86 15.89 23.63 16.79 23.17C17.69 22.71 18.14 22.04 18.14 21.16C18.14 20.38 17.87 19.71 17.33 19.15C16.79 18.57 16.12 18.08 15.32 17.68C14.52 17.28 13.43 16.81 12.05 16.27C11.93 16.23 11.64 16.12 11.18 15.94C9.3 15.18 7.85 14.42 6.83 13.66C5.83 12.9 5.33 11.92 5.33 10.72C5.33 9.38 5.86 8.37 6.92 7.69C7.98 7.01 9.34 6.67 11 6.67C12.22 6.67 13.34 6.83 14.36 7.15C15.4 7.45 16.22 7.87 16.82 8.41C17.44 8.95 17.75 9.56 17.75 10.24C17.51 10.36 17.28 10.42 17.06 10.42C16.82 10.42 16.57 10.37 16.31 10.27C16.07 10.15 15.71 9.96 15.23 9.7C14.45 9.28 13.72 8.95 13.04 8.71C12.36 8.45 11.56 8.32 10.64 8.32C9.48 8.32 8.54 8.52 7.82 8.92C7.1 9.32 6.74 9.88 6.74 10.6C6.74 11.16 6.98 11.67 7.46 12.13C7.96 12.59 8.58 13 9.32 13.36C10.08 13.7 11.09 14.11 12.35 14.59C13.95 15.21 15.27 15.79 16.31 16.33C17.35 16.87 18.23 17.56 18.95 18.4C19.69 19.22 20.06 20.2 20.06 21.34C20.06 22.68 19.42 23.72 18.14 24.46C16.86 25.18 15.27 25.54 13.37 25.54C11.87 25.54 10.39 25.32 8.93 24.88C7.47 24.44 6.22 23.79 5.18 22.93C4.14 22.05 3.48 21 3.2 19.78C3.2 19.24 3.35 18.78 3.65 18.4C3.95 18 4.32 17.8 4.76 17.8C4.76 19.1 5.12 20.21 5.84 21.13C6.58 22.03 7.57 22.71 8.81 23.17C10.07 23.63 11.46 23.86 12.98 23.86ZM29.828 25.03C27.488 25.03 25.668 24.5 24.368 23.44C23.088 22.36 22.448 20.7 22.448 18.46C22.448 17.32 22.728 16.24 23.288 15.22C23.868 14.18 24.638 13.35 25.598 12.73C26.578 12.09 27.628 11.77 28.748 11.77C29.888 11.77 30.858 12.02 31.658 12.52C32.458 13 32.858 13.7 32.858 14.62C32.858 15.26 32.738 15.72 32.498 16C32.278 16.26 32.028 16.39 31.748 16.39C31.748 15.43 31.488 14.65 30.968 14.05C30.448 13.45 29.708 13.15 28.748 13.15C27.788 13.15 26.958 13.41 26.258 13.93C25.558 14.43 25.018 15.1 24.638 15.94C24.278 16.76 24.098 17.62 24.098 18.52C24.098 20.42 24.738 21.71 26.018 22.39C27.318 23.07 29.028 23.41 31.148 23.41C31.868 23.41 32.808 23.37 33.968 23.29C34.008 23.29 34.098 23.33 34.238 23.41C34.378 23.49 34.488 23.54 34.568 23.56V23.74C34.568 24.32 34.058 24.68 33.038 24.82C32.018 24.96 30.948 25.03 29.828 25.03ZM38.4181 25C37.5981 23.4 36.9481 21.52 36.4681 19.36C36.0081 17.2 35.7781 15.33 35.7781 13.75C35.7781 13.13 35.9181 12.73 36.1981 12.55C36.3581 12.45 36.4781 12.4 36.5581 12.4C36.6981 12.4 36.7981 12.51 36.8581 12.73C36.9381 12.95 37.0181 13.35 37.0981 13.93L37.2481 15.01C37.4681 13.93 37.8881 13.08 38.5081 12.46C39.1481 11.82 39.9281 11.5 40.8481 11.5C41.8681 11.5 42.6281 11.7 43.1281 12.1C43.6281 12.48 43.8781 13.12 43.8781 14.02C42.8781 13.54 41.9681 13.3 41.1481 13.3C40.3681 13.3 39.6981 13.51 39.1381 13.93C38.5781 14.35 38.1881 14.97 37.9681 15.79C37.7881 16.35 37.6981 16.88 37.6981 17.38C37.6981 17.92 37.7681 18.43 37.9081 18.91C38.0681 19.37 38.3081 19.94 38.6281 20.62C38.9281 21.32 39.1581 21.92 39.3181 22.42C39.4981 22.92 39.5981 23.46 39.6181 24.04C39.6181 24.38 39.4981 24.63 39.2581 24.79C39.0181 24.93 38.7381 25 38.4181 25ZM51.2752 25.03C50.0952 25.03 49.0252 24.77 48.0652 24.25C47.1252 23.71 46.3852 22.97 45.8452 22.03C45.3252 21.07 45.0652 19.98 45.0652 18.76C45.0652 16.76 45.7952 15.27 47.2552 14.29C48.7352 13.31 50.5452 12.82 52.6852 12.82C53.6652 12.82 54.5752 13.06 55.4152 13.54C56.2752 14.02 56.9652 14.71 57.4852 15.61C58.0052 16.51 58.2652 17.55 58.2652 18.73C58.2652 20.01 57.9352 21.13 57.2752 22.09C56.6152 23.03 55.7452 23.76 54.6652 24.28C53.6052 24.78 52.4752 25.03 51.2752 25.03ZM50.9452 23.32C52.8052 23.32 54.2152 22.9 55.1752 22.06C56.1352 21.22 56.6152 19.99 56.6152 18.37C56.6152 17.27 56.2352 16.32 55.4752 15.52C54.7352 14.72 53.6952 14.32 52.3552 14.32C51.4552 14.32 50.5452 14.49 49.6252 14.83C48.7052 15.17 47.9452 15.68 47.3452 16.36C46.7452 17.04 46.4452 17.86 46.4452 18.82C46.4452 19.62 46.6452 20.37 47.0452 21.07C47.4452 21.75 47.9852 22.3 48.6652 22.72C49.3652 23.12 50.1252 23.32 50.9452 23.32ZM61.393 24.79C60.953 22.61 60.613 20.03 60.373 17.05C60.153 14.05 60.043 11.15 60.043 8.35C60.043 6.95 60.073 5.71 60.133 4.63C60.133 4.37 60.333 4.24 60.733 4.24C61.053 4.24 61.253 4.32 61.333 4.48C61.433 4.64 61.483 4.89 61.483 5.23C61.483 8.47 61.543 11.24 61.663 13.54C61.783 15.82 61.943 18.28 62.143 20.92C62.263 22.62 62.343 23.77 62.383 24.37C62.403 24.69 62.233 24.85 61.873 24.85C61.753 24.85 61.593 24.83 61.393 24.79ZM66.432 24.79C65.992 22.61 65.652 20.03 65.412 17.05C65.192 14.05 65.082 11.15 65.082 8.35C65.082 6.95 65.112 5.71 65.172 4.63C65.172 4.37 65.372 4.24 65.772 4.24C66.092 4.24 66.292 4.32 66.372 4.48C66.472 4.64 66.522 4.89 66.522 5.23C66.522 8.47 66.582 11.24 66.702 13.54C66.822 15.82 66.982 18.28 67.182 20.92C67.302 22.62 67.382 23.77 67.422 24.37C67.442 24.69 67.272 24.85 66.912 24.85C66.792 24.85 66.632 24.83 66.432 24.79ZM82.4511 24.97C81.5111 24.97 80.6911 24.65 79.9911 24.01C79.3111 23.37 78.7911 22.54 78.4311 21.52C78.0911 20.5 77.9211 19.44 77.9211 18.34C77.9211 16.42 78.3211 14.8 79.1211 13.48C79.9411 12.16 81.1811 11.5 82.8411 11.5C83.8411 11.5 84.7111 11.68 85.4511 12.04C86.2111 12.38 87.2011 12.96 88.4211 13.78L89.2011 14.32C89.1011 13.66 88.9511 12.9 88.7511 12.04C88.5511 11.18 88.4211 10.59 88.3611 10.27C88.0211 8.71 87.7711 7.55 87.6111 6.79C87.4711 6.01 87.4011 5.32 87.4011 4.72C87.4011 3.66 87.7011 3.13 88.3011 3.13C88.5211 3.61 88.7811 4.64 89.0811 6.22C89.3811 7.78 89.7611 9.92 90.2211 12.64C90.7011 15.52 91.1211 17.87 91.4811 19.69C91.8411 21.51 92.1411 22.65 92.3811 23.11C92.3811 23.57 92.0411 23.8 91.3611 23.8C90.8411 23.8 90.4811 23.5 90.2811 22.9C90.1011 22.3 89.9911 21.25 89.9511 19.75H89.7111C88.8711 21.27 87.7811 22.52 86.4411 23.5C85.1011 24.48 83.7711 24.97 82.4511 24.97ZM82.8411 23.5C83.6611 23.5 84.5411 23.16 85.4811 22.48C86.4411 21.78 87.2511 20.94 87.9111 19.96C88.5711 18.96 88.9011 18.06 88.9011 17.26V16.36C86.8411 14.2 84.9411 13.12 83.2011 13.12C81.9811 13.12 81.0411 13.57 80.3811 14.47C79.7211 15.35 79.3911 16.51 79.3911 17.95L79.4211 18.58C79.5411 20.1 79.8811 21.3 80.4411 22.18C81.0011 23.06 81.8011 23.5 82.8411 23.5ZM100.377 25.03C99.1968 25.03 98.1268 24.77 97.1668 24.25C96.2268 23.71 95.4868 22.97 94.9468 22.03C94.4268 21.07 94.1668 19.98 94.1668 18.76C94.1668 16.76 94.8968 15.27 96.3568 14.29C97.8368 13.31 99.6468 12.82 101.787 12.82C102.767 12.82 103.677 13.06 104.517 13.54C105.377 14.02 106.067 14.71 106.587 15.61C107.107 16.51 107.367 17.55 107.367 18.73C107.367 20.01 107.037 21.13 106.377 22.09C105.717 23.03 104.847 23.76 103.767 24.28C102.707 24.78 101.577 25.03 100.377 25.03ZM100.047 23.32C101.907 23.32 103.317 22.9 104.277 22.06C105.237 21.22 105.717 19.99 105.717 18.37C105.717 17.27 105.337 16.32 104.577 15.52C103.837 14.72 102.797 14.32 101.457 14.32C100.557 14.32 99.6468 14.49 98.7268 14.83C97.8068 15.17 97.0468 15.68 96.4468 16.36C95.8468 17.04 95.5468 17.86 95.5468 18.82C95.5468 19.62 95.7468 20.37 96.1468 21.07C96.5468 21.75 97.0868 22.3 97.7668 22.72C98.4668 23.12 99.2268 23.32 100.047 23.32ZM123.073 24.85C121.953 24.85 121.043 24.64 120.343 24.22C119.663 23.78 119.183 23.1 118.903 22.18C118.303 23.22 117.613 24 116.833 24.52C116.053 25.02 115.213 25.27 114.313 25.27C112.753 25.27 111.553 24.71 110.713 23.59C109.873 22.47 109.453 20.66 109.453 18.16C109.453 16.98 109.573 15.98 109.813 15.16C110.073 14.34 110.503 13.59 111.103 12.91C111.383 13.01 111.553 13.15 111.613 13.33C111.693 13.49 111.733 13.73 111.733 14.05C111.733 14.37 111.693 14.69 111.613 15.01C111.553 15.33 111.513 15.52 111.493 15.58C111.353 16.18 111.243 16.71 111.163 17.17C111.103 17.61 111.073 18.16 111.073 18.82C111.073 20.26 111.343 21.44 111.883 22.36C112.443 23.26 113.243 23.71 114.283 23.71C115.463 23.71 116.383 23.33 117.043 22.57C117.723 21.79 118.063 20.82 118.063 19.66L117.853 16.6C117.853 16.48 117.933 16.36 118.093 16.24C118.273 16.12 118.473 16.06 118.693 16.06C118.973 16.06 119.163 16.25 119.263 16.63C119.363 17.01 119.453 17.61 119.533 18.43C119.653 19.45 119.783 20.29 119.923 20.95C120.083 21.59 120.383 22.16 120.823 22.66C121.263 23.14 121.903 23.38 122.743 23.38C123.763 23.38 124.503 23.1 124.963 22.54C125.423 21.96 125.653 21.21 125.653 20.29C125.653 19.47 125.493 18.61 125.173 17.71C124.873 16.79 124.503 16.04 124.063 15.46C124.043 15.28 124.133 15.13 124.333 15.01C124.553 14.89 124.773 14.86 124.993 14.92C125.353 15 125.683 15.32 125.983 15.88C126.303 16.44 126.553 17.14 126.733 17.98C126.933 18.82 127.033 19.66 127.033 20.5C127.033 21.76 126.713 22.8 126.073 23.62C125.453 24.44 124.453 24.85 123.073 24.85ZM132.29 25.12C132.01 25.2 131.85 25.24 131.81 25.24C131.65 25.24 131.48 25.16 131.3 25C130.64 24.02 130.16 22.31 129.86 19.87C129.58 17.43 129.44 15.33 129.44 13.57C129.44 13.29 129.64 13.15 130.04 13.15C130.64 13.15 130.94 13.48 130.94 14.14C130.94 14.32 130.93 14.47 130.91 14.59C131.09 14.17 131.43 13.74 131.93 13.3C132.43 12.86 133.01 12.49 133.67 12.19C134.33 11.89 135 11.74 135.68 11.74C137.82 11.74 139.38 12.69 140.36 14.59C141.34 16.47 141.83 18.81 141.83 21.61C141.83 22.57 141.73 23.34 141.53 23.92C141.33 24.48 141.06 24.76 140.72 24.76C140.36 24.76 140.18 24.65 140.18 24.43C140.32 23.37 140.39 22.33 140.39 21.31C140.39 18.73 139.94 16.78 139.04 15.46C138.14 14.12 136.95 13.45 135.47 13.45C134.75 13.45 134.05 13.63 133.37 13.99C132.71 14.35 132.17 14.85 131.75 15.49C131.35 16.13 131.15 16.86 131.15 17.68C131.15 18.6 131.2 19.4 131.3 20.08C131.4 20.76 131.56 21.58 131.78 22.54C132.02 23.48 132.19 24.34 132.29 25.12Z" fill="#F4F4F5"/>
<g clip-path="url(#clip0)">
<path d="M19.5013 92.7826C18.4458 90.5711 17.9756 88.3919 17.9849 86.2965C17.9923 84.1981 18.4811 82.1819 19.3406 80.2937C20.1983 78.4026 21.4275 76.6428 22.9179 75.0566C24.4093 73.4701 26.1625 72.0548 28.0691 70.8618C29.1984 70.1545 30.376 69.5276 31.5934 68.9859C32.8215 68.4389 34.0928 67.9946 35.3943 67.6577C36.6929 67.3259 39.5368 67.1125 40.8675 67.0518C42.1968 66.9903 43.5324 67.078 44.852 67.3439C45.6615 67.5075 46.6462 67.8226 47.6337 68.2692C48.6189 68.7163 49.6086 69.2969 50.4203 69.9924C51.232 70.688 51.8703 71.4984 52.1557 72.4034C52.4412 73.3084 52.3765 74.3096 51.7819 75.39C51.3538 76.1716 50.6645 76.7777 49.8345 77.1022C49.0287 77.4329 48.0987 77.5429 47.1417 77.5128C46.1849 77.4838 45.1998 77.3103 44.2852 77.0705C43.4522 76.8506 42.6382 76.5639 41.8512 76.2133C40.7459 75.7132 39.6897 75.111 38.6963 74.4147C37.6898 73.7089 36.7498 72.9127 35.8883 72.0358C35.0262 71.1566 34.2473 70.1982 33.578 69.1767C32.9093 68.1639 32.3541 67.0805 31.9223 65.9462C31.452 64.7146 31.1592 63.4223 31.0529 62.1082C30.9537 60.863 31.0443 59.6101 31.3217 58.3921C33.0539 50.8024 41.0494 47.2469 47.752 45.1226C51.0694 44.0725 54.4133 43.108 57.7613 42.1634C61.2044 41.1886 64.6894 40.3743 68.2076 39.7228" stroke="#F4F4F5" stroke-width="1.5" stroke-miterlimit="10" stroke-linecap="round"/>
<path d="M12 88.8288C16.1698 91.4343 16.8736 96.2283 20.2948 99.4534C21.467 96.0613 24.1531 89.2894 27.1586 87" stroke="#F4F4F5" stroke-width="1.5" stroke-miterlimit="10" stroke-linecap="round" stroke-linejoin="round"/>
</g>
<defs>
<clipPath id="clip0">
<rect width="72.8401" height="50.4278" fill="white" transform="translate(0 54.8524) rotate(-15)"/>
</clipPath>
</defs>
</svg>